<svg width="37" height="36" viewBox="0 0 37 36" fill="none" xmlns="http://www.w3.org/2000/svg">
<g clip-path="url(#clip0_35_51)">
<path d="M6.90002 20.6002C13.1 14.4002 23.1 14.4002 29.3 20.6002" stroke="white" stroke-width="3" stroke-miterlimit="10" stroke-linecap="round" stroke-linejoin="round"/>
<path d="M12.4 26.0001C15.6 22.8001 20.7 22.8001 23.8 26.0001" stroke="white" stroke-width="3" stroke-miterlimit="10" stroke-linecap="round" stroke-linejoin="round"/>
<path d="M18.1 34.1998C18.7628 34.1998 19.3 33.6625 19.3 32.9998C19.3 32.3371 18.7628 31.7998 18.1 31.7998C17.4373 31.7998 16.9 32.3371 16.9 32.9998C16.9 33.6625 17.4373 34.1998 18.1 34.1998Z" stroke="white" stroke-width="3" stroke-miterlimit="10" stroke-linecap="round" stroke-linejoin="round"/>
<path d="M22.7 1.5L13.5 10.7" stroke="white" stroke-width="3" stroke-miterlimit="10" stroke-linecap="round" stroke-linejoin="round"/>
<path d="M13.5 1.5L22.7 10.7" stroke="white" stroke-width="3" stroke-miterlimit="10" stroke-linecap="round" stroke-linejoin="round"/>
<path d="M28.1 10.5C30.5 11.6 32.7 13.2 34.7 15.1" stroke="white" stroke-width="3" stroke-miterlimit="10" stroke-linecap="round" stroke-linejoin="round"/>
<path d="M1.5 15.2001C3.5 13.2001 5.7 11.7001 8.1 10.6001" stroke="white" stroke-width="3" stroke-miterlimit="10" stroke-linecap="round" stroke-linejoin="round"/>
</g>
<defs>
<clipPath id="clip0_35_51">
<rect width="36.2" height="35.7" fill="white"/>
</clipPath>
</defs>
</svg>
