<svg width="37" height="34" viewBox="0 0 37 34" fill="none" xmlns="http://www.w3.org/2000/svg">
<g clip-path="url(#clip0_35_87)">
<path d="M25.5 8.9999C27.5986 8.9999 29.2999 7.29858 29.2999 5.1999C29.2999 3.10122 27.5986 1.3999 25.5 1.3999C23.4013 1.3999 21.7 3.10122 21.7 5.1999C21.7 7.29858 23.4013 8.9999 25.5 8.9999Z" stroke="white" stroke-width="3" stroke-miterlimit="10" stroke-linecap="round" stroke-linejoin="round"/>
<path d="M21.8 5.2998H1.5" stroke="white" stroke-width="3" stroke-miterlimit="10" stroke-linecap="round" stroke-linejoin="round"/>
<path d="M29.3 5.2998H34.7001" stroke="white" stroke-width="3" stroke-miterlimit="10" stroke-linecap="round" stroke-linejoin="round"/>
<path d="M10.7 20.7997C12.7987 20.7997 14.5 19.0984 14.5 16.9997C14.5 14.901 12.7987 13.1997 10.7 13.1997C8.60134 13.1997 6.90002 14.901 6.90002 16.9997C6.90002 19.0984 8.60134 20.7997 10.7 20.7997Z" stroke="white" stroke-width="3" stroke-miterlimit="10" stroke-linecap="round" stroke-linejoin="round"/>
<path d="M14.4 16.9995H34.7" stroke="white" stroke-width="3" stroke-miterlimit="10" stroke-linecap="round" stroke-linejoin="round"/>
<path d="M6.9 16.9995H1.5" stroke="white" stroke-width="3" stroke-miterlimit="10" stroke-linecap="round" stroke-linejoin="round"/>
<path d="M25.5 32.4999C27.5986 32.4999 29.2999 30.7986 29.2999 28.6999C29.2999 26.6012 27.5986 24.8999 25.5 24.8999C23.4013 24.8999 21.7 26.6012 21.7 28.6999C21.7 30.7986 23.4013 32.4999 25.5 32.4999Z" stroke="white" stroke-width="3" stroke-miterlimit="10" stroke-linecap="round" stroke-linejoin="round"/>
<path d="M21.8 28.6997H1.5" stroke="white" stroke-width="3" stroke-miterlimit="10" stroke-linecap="round" stroke-linejoin="round"/>
<path d="M29.3 28.6997H34.7001" stroke="white" stroke-width="3" stroke-miterlimit="10" stroke-linecap="round" stroke-linejoin="round"/>
</g>
<defs>
<clipPath id="clip0_35_87">
<rect width="36.2" height="34" fill="white"/>
</clipPath>
</defs>
</svg>
