<svg width="37" height="37" viewBox="0 0 37 37" fill="none" xmlns="http://www.w3.org/2000/svg">
<g clip-path="url(#clip0_35_118)">
<path d="M18.3 34.9999C27.5784 34.9999 35.1 27.4783 35.1 18.1999C35.1 8.92152 27.5784 1.3999 18.3 1.3999C9.02162 1.3999 1.5 8.92152 1.5 18.1999C1.5 27.4783 9.02162 34.9999 18.3 34.9999Z" stroke="white" stroke-width="3" stroke-miterlimit="10" stroke-linecap="round" stroke-linejoin="round"/>
<path d="M26.9 20.5C26.9 25.3 23 29.2 18.2 29.2C13.4 29.2 9.5 25.3 9.5 20.5" stroke="white" stroke-width="3" stroke-miterlimit="10" stroke-linecap="round" stroke-linejoin="round"/>
<path d="M15.3 11.2998C15.3 12.8998 14 14.2998 12.3 14.2998C10.6 14.2998 9.30005 12.9998 9.30005 11.2998" stroke="white" stroke-width="3" stroke-miterlimit="10" stroke-linecap="round" stroke-linejoin="round"/>
<path d="M27.2001 11.2998C27.2001 12.8998 25.9001 14.2998 24.2001 14.2998C22.5001 14.2998 21.2001 12.9998 21.2001 11.2998" stroke="white" stroke-width="3" stroke-miterlimit="10" stroke-linecap="round" stroke-linejoin="round"/>
</g>
<defs>
<clipPath id="clip0_35_118">
<rect width="36.5" height="36.5" fill="white"/>
</clipPath>
</defs>
</svg>
