<svg width="56" height="56" viewBox="0 0 56 56" fill="none" xmlns="http://www.w3.org/2000/svg">
<g clip-path="url(#clip0_11_270)">
<path d="M16.4 39.0999C28.1 50.7999 40.2 53.1999 41.5 52.8999C42.8 52.6999 53.4 43.1999 53 42.2999C52.6 41.3999 42.5 34.4999 39.1 33.9999C39.1 33.9999 36.9 35.9999 34.9 38.7999C31.2 38.2999 26.5 35.1999 23.4 32.0999C20.3 28.9999 17.2 24.2999 16.7 20.5999C19.5 18.5999 21.5 16.3999 21.5 16.3999C20.9 12.9999 14 2.99989 13.1 2.49989C12.2 1.99989 2.69999 12.6999 2.49999 13.9999C2.29999 15.2999 4.59999 27.3999 16.4 39.0999Z" stroke="#FBB03B" stroke-width="5" stroke-miterlimit="10" stroke-linecap="round" stroke-linejoin="round"/>
<path d="M30 4.69971C41.4 4.69971 50.7 13.9997 50.7 25.3997" stroke="#FBB03B" stroke-width="5" stroke-miterlimit="10" stroke-linecap="round" stroke-linejoin="round"/>
<path d="M30 13.1001C36.8 13.1001 42.4 18.6001 42.4 25.5001" stroke="#FBB03B" stroke-width="5" stroke-miterlimit="10" stroke-linecap="round" stroke-linejoin="round"/>
</g>
<defs>
<clipPath id="clip0_11_270">
<rect width="55.4" height="55.4" fill="white"/>
</clipPath>
</defs>
</svg>
