<svg width="61" height="61" viewBox="0 0 61 61" fill="none" xmlns="http://www.w3.org/2000/svg">
<g clip-path="url(#clip0_11_283)">
<path d="M23.7 2.5C12 2.5 2.5 12 2.5 23.7C2.5 26.6 3.1 29.3 4.1 31.8C6 37 4.1 41.8 2.5 44C5.6 45.5 10.5 46.3 14.4 42.7C17.2 44.1 20.3 44.8 23.7 44.8C35.4 44.8 44.9 35.3 44.9 23.6C44.8 12 35.3 2.5 23.7 2.5Z" stroke="#FBB03B" stroke-width="5" stroke-miterlimit="10" stroke-linecap="round" stroke-linejoin="round"/>
<path d="M23.8 52.7999C27.5 55.7999 32.1 57.5999 37.3 57.5999C40.6 57.5999 43.8 56.7999 46.6 55.4999C50.5 58.9999 55.4 58.1999 58.5 56.7999C56.9 54.5999 55.0001 49.7999 56.9001 44.5999C57.9001 42.0999 58.5 39.3999 58.5 36.4999C58.5 31.5999 56.8 26.9999 54 23.3999" stroke="#FBB03B" stroke-width="5" stroke-miterlimit="10" stroke-linecap="round" stroke-linejoin="round"/>
<path d="M13.4 25.2002C14.2285 25.2002 14.9 24.5286 14.9 23.7002C14.9 22.8718 14.2285 22.2002 13.4 22.2002C12.5716 22.2002 11.9 22.8718 11.9 23.7002C11.9 24.5286 12.5716 25.2002 13.4 25.2002Z" stroke="#FBB03B" stroke-width="5" stroke-miterlimit="10" stroke-linecap="round" stroke-linejoin="round"/>
<path d="M23.7001 25.2002C24.5285 25.2002 25.2001 24.5286 25.2001 23.7002C25.2001 22.8718 24.5285 22.2002 23.7001 22.2002C22.8716 22.2002 22.2001 22.8718 22.2001 23.7002C22.2001 24.5286 22.8716 25.2002 23.7001 25.2002Z" stroke="#FBB03B" stroke-width="5" stroke-miterlimit="10" stroke-linecap="round" stroke-linejoin="round"/>
<path d="M33.9 25.2002C34.7285 25.2002 35.4 24.5286 35.4 23.7002C35.4 22.8718 34.7285 22.2002 33.9 22.2002C33.0716 22.2002 32.4 22.8718 32.4 23.7002C32.4 24.5286 33.0716 25.2002 33.9 25.2002Z" stroke="#FBB03B" stroke-width="5" stroke-miterlimit="10" stroke-linecap="round" stroke-linejoin="round"/>
</g>
<defs>
<clipPath id="clip0_11_283">
<rect width="60.9" height="60.6" fill="white"/>
</clipPath>
</defs>
</svg>
