<svg width="53" height="69" viewBox="0 0 53 69" fill="none" xmlns="http://www.w3.org/2000/svg">
<g clip-path="url(#clip0_11_291)">
<path d="M45.8 66.5001H6.79998C4.49998 66.5001 2.59998 64.6001 2.59998 62.3001V33.3001C2.59998 31.0001 4.49998 29.1001 6.79998 29.1001H45.8C48.1 29.1001 50 31.0001 50 33.3001V62.2001C50 64.6001 48.1 66.5001 45.8 66.5001Z" stroke="#FBB03B" stroke-width="5" stroke-miterlimit="10" stroke-linecap="round" stroke-linejoin="round"/>
<path d="M38.2 19.6V14.5C38.2 7.9 32.8 2.5 26.2 2.5C19.6 2.5 14.2 7.9 14.2 14.5V29.1" stroke="#FBB03B" stroke-width="5" stroke-miterlimit="10" stroke-linecap="round" stroke-linejoin="round"/>
<path d="M29.6 44.5002C29.6 42.7002 28.1 41.2002 26.3 41.2002C24.5 41.2002 23 42.7002 23 44.5002C23 45.9002 23.9 47.1002 25.1 47.6002V54.1002C25.1 54.8002 25.7 55.4002 26.4 55.4002C27.1 55.4002 27.7 54.8002 27.7 54.1002V47.6002C28.7 47.0002 29.6 45.9002 29.6 44.5002Z" stroke="#FBB03B" stroke-width="5" stroke-miterlimit="10" stroke-linecap="round" stroke-linejoin="round"/>
</g>
<defs>
<clipPath id="clip0_11_291">
<rect width="52.5" height="69" fill="white"/>
</clipPath>
</defs>
</svg>
