<svg width="66" height="66" viewBox="0 0 66 66" fill="none" xmlns="http://www.w3.org/2000/svg">
<g clip-path="url(#clip0_11_296)">
<path d="M62.9 2.5C50.8 2.5 38.2 6.6 28.4 16.4C18.6 26.2 10.1 34.7 10.1 34.7L20.4 45" stroke="#FBB03B" stroke-width="5" stroke-miterlimit="10" stroke-linecap="round" stroke-linejoin="round"/>
<path d="M22.9 21.9001L19.2 18.2001C19.2 18.2001 11.9 17.6001 2.5 27.0001C5.7 30.2001 10.1 34.6001 10.1 34.6001L6.9 42.1001L15 50.2001" stroke="#FBB03B" stroke-width="5" stroke-miterlimit="10" stroke-linecap="round" stroke-linejoin="round"/>
<path d="M9.90005 45.2002L4.30005 50.8002" stroke="#FBB03B" stroke-width="5" stroke-miterlimit="10" stroke-linecap="round" stroke-linejoin="round"/>
<path d="M15.1 50.2998L2.69995 62.5998" stroke="#FBB03B" stroke-width="5" stroke-miterlimit="10" stroke-linecap="round" stroke-linejoin="round"/>
<path d="M62.8999 2.5C62.8999 14.6 58.7999 27.2 48.9999 37C39.1999 46.8 30.6999 55.3 30.6999 55.3L20.3999 45" stroke="#FBB03B" stroke-width="5" stroke-miterlimit="10" stroke-linecap="round" stroke-linejoin="round"/>
<path d="M43.5 42.5L47.2 46.2C47.2 46.2 47.8 53.5 38.4 62.9C35.2 59.7 30.8 55.3 30.8 55.3L23.3 58.5L15.2 50.4" stroke="#FBB03B" stroke-width="5" stroke-miterlimit="10" stroke-linecap="round" stroke-linejoin="round"/>
<path d="M20.2 55.5L14.6 61.1" stroke="#FBB03B" stroke-width="5" stroke-miterlimit="10" stroke-linecap="round" stroke-linejoin="round"/>
<path d="M15.1 50.2998L2.69995 62.5998" stroke="#FBB03B" stroke-width="5" stroke-miterlimit="10" stroke-linecap="round" stroke-linejoin="round"/>
<path d="M41.2 30.8001C44.8451 30.8001 47.8 27.8452 47.8 24.2001C47.8 20.555 44.8451 17.6001 41.2 17.6001C37.5549 17.6001 34.6 20.555 34.6 24.2001C34.6 27.8452 37.5549 30.8001 41.2 30.8001Z" stroke="#FBB03B" stroke-width="5" stroke-miterlimit="10" stroke-linecap="round" stroke-linejoin="round"/>
</g>
<defs>
<clipPath id="clip0_11_296">
<rect width="65.4" height="65.4" fill="white"/>
</clipPath>
</defs>
</svg>
