<svg width="67" height="76" viewBox="0 0 67 76" fill="none" xmlns="http://www.w3.org/2000/svg">
<g clip-path="url(#clip0_11_310)">
<path d="M15.7 72.2H2.5V33.5H15.7C18.3 33.5 20.5 35.6 20.5 38.3V67.5C20.5 70.1 18.3 72.2 15.7 72.2Z" stroke="#FBB03B" stroke-width="5" stroke-miterlimit="10" stroke-linecap="round" stroke-linejoin="round"/>
<path d="M59.4 46.2002C61.9 46.2002 63.9 44.2002 63.9 41.7002C63.9 39.2002 61.9 37.2002 59.4 37.2002H39" stroke="#FBB03B" stroke-width="5" stroke-miterlimit="10" stroke-linecap="round" stroke-linejoin="round"/>
<path d="M59.4001 55.2002C61.9001 55.2002 63.9001 53.2002 63.9001 50.7002C63.9001 48.2002 61.9001 46.2002 59.4001 46.2002H53.8" stroke="#FBB03B" stroke-width="5" stroke-miterlimit="10" stroke-linecap="round" stroke-linejoin="round"/>
<path d="M53.8 55.2002H59.4C61.9 55.2002 63.9 57.2002 63.9 59.7002C63.9 62.2002 61.9 64.2002 59.4 64.2002H53.4" stroke="#FBB03B" stroke-width="5" stroke-miterlimit="10" stroke-linecap="round" stroke-linejoin="round"/>
<path d="M54.9 64.2002C57.4 64.2002 59.4 66.2002 59.4 68.7002C59.4 71.2002 57.4 73.2002 54.9 73.2002H35.7999C35.7999 73.2002 26.7 73.2002 20.2 69.1002" stroke="#FBB03B" stroke-width="5" stroke-miterlimit="10" stroke-linecap="round" stroke-linejoin="round"/>
<path d="M20.5 38.1998L31.2 32.4998C31.2 32.4998 36.5 29.8998 37.4 25.5998C38.3 21.2998 39.8 15.7998 39.8 15.7998C39.8 15.7998 45.4 16.1998 47.5 21.5998C49.5 27.0998 45.7 33.8998 45.7 33.8998L44.3 36.9998" stroke="#FBB03B" stroke-width="5" stroke-miterlimit="10" stroke-linecap="round" stroke-linejoin="round"/>
<path d="M41.5 2.5V8" stroke="#FBB03B" stroke-width="5" stroke-miterlimit="10" stroke-linecap="round" stroke-linejoin="round"/>
<path d="M28.5 8L32.3 11.8" stroke="#FBB03B" stroke-width="5" stroke-miterlimit="10" stroke-linecap="round" stroke-linejoin="round"/>
<path d="M54.5999 8L50.7 11.8" stroke="#FBB03B" stroke-width="5" stroke-miterlimit="10" stroke-linecap="round" stroke-linejoin="round"/>
</g>
<defs>
<clipPath id="clip0_11_310">
<rect width="66.4" height="75.8" fill="white"/>
</clipPath>
</defs>
</svg>
