<svg width="196" height="59" viewBox="0 0 196 59" fill="none" xmlns="http://www.w3.org/2000/svg">
<path d="M70 43.7001V21.2001C70 20.7001 70.1 20.3001 70.3 19.9001C70.5 19.5001 70.7 19.1001 71.1 18.9001C71.4 18.6001 71.8 18.4001 72.2 18.2001C72.6 18.0001 73 17.9001 73.4 17.9001H76.4C76.7 17.9001 76.9 18.0001 77 18.2001C77.2 18.4001 77.3 18.6001 77.3 18.9001V37.5001C77.3 37.7001 77.4 38.0001 77.6 38.2001C77.8 38.5001 78.1 38.6001 78.5 38.6001H88.8C89.1 38.6001 89.3 38.7001 89.5 38.8001C89.7 39.0001 89.8 39.2001 89.8 39.5001V43.6001C89.8 43.9001 89.7 44.1001 89.5 44.3001C89.3 44.5001 89.1 44.6001 88.8 44.6001H71C70.8 44.6001 70.6 44.5001 70.4 44.3001C70.1 44.1001 70 43.9001 70 43.7001Z" fill="white"/>
<path d="M141.7 18.1C142 18.1 142.2 18.2 142.4 18.4C142.6 18.6 142.7 18.8 142.7 19.1V43.8C142.7 44.1 142.6 44.3 142.4 44.5C142.2 44.7 142 44.8 141.7 44.8H136.9C136.6 44.8 136.4 44.7 136.2 44.5C136 44.3 135.9 44.1 135.9 43.8V30.8C135.9 30.6 135.8 30.6 135.7 30.6C135.6 30.6 135.6 30.6 135.5 30.7L131.7 37.5C131.4 38.1 130.9 38.4 130.4 38.4H128.4C127.9 38.4 127.4 38.1 127.1 37.5L123.4 30.7C123.4 30.6 123.3 30.6 123.2 30.6C123 30.6 123 30.7 123 30.8V43.8C123 44.1 122.9 44.3 122.7 44.5C122.5 44.7 122.3 44.7 122 44.7H117.2C116.9 44.7 116.7 44.6 116.5 44.5C116.3 44.4 116.2 44.1 116.2 43.8V21.2C116.2 20.7 116.3 20.2 116.6 19.8C116.8 19.4 117.1 19.1 117.5 18.8C117.8 18.5 118.2 18.3 118.5 18.2C118.9 18.1 119.1 18 119.4 18H121.5C122.2 18 122.6 18.3 122.9 18.8L129.3 30.2C129.4 30.3 129.4 30.3 129.5 30.3C129.6 30.3 129.6 30.3 129.7 30.2L136.1 18.8C136.4 18.2 136.8 18 137.5 18L141.7 18.1Z" fill="white"/>
<path d="M146.5 34.5001V21.3001C146.5 20.8001 146.6 20.3001 146.8 19.9001C147 19.5001 147.3 19.1001 147.6 18.9001C147.9 18.6001 148.3 18.4001 148.7 18.3001C149.1 18.1001 149.5 18.1001 149.9 18.1001H152.7C153 18.1001 153.2 18.2001 153.4 18.4001C153.6 18.6001 153.7 18.8001 153.7 19.1001V34.6001C153.7 36.1001 154.1 37.2001 154.8 38.1001C155.5 39.0001 156.6 39.4001 158.1 39.4001C159.6 39.4001 160.7 39.0001 161.4 38.1001C162.1 37.2001 162.4 36.1001 162.4 34.7001V21.3001C162.4 20.8001 162.5 20.3001 162.7 19.9001C162.9 19.5001 163.2 19.1001 163.5 18.9001C163.8 18.6001 164.2 18.4001 164.6 18.3001C165 18.2001 165.4 18.1001 165.7 18.1001H168.5C168.8 18.1001 169 18.2001 169.2 18.4001C169.4 18.6001 169.5 18.8001 169.5 19.1001V34.6001C169.5 36.4001 169.2 38.0001 168.7 39.3001C168.2 40.6001 167.4 41.7001 166.4 42.6001C165.4 43.5001 164.2 44.1001 162.8 44.5001C161.4 44.9001 159.8 45.1001 158.1 45.1001C156.4 45.1001 154.8 44.9001 153.4 44.5001C152 44.1001 150.8 43.5001 149.7 42.6001C148.7 41.7001 147.9 40.6001 147.3 39.3001C146.8 37.9001 146.5 36.4001 146.5 34.5001Z" fill="white"/>
<path d="M109.2 34C109.9 34 110.2 33.7 110.2 33V29.6C110.2 28.9 109.9 28.6 109.2 28.6H100.9C100.5 28.6 100.2 28.5 100 28.2C99.8 27.9 99.7 27.7 99.7 27.4V24.9C99.7 24.6 99.8 24.4 100 24.1C100.2 23.8 100.5 23.7 100.9 23.7H111.8C112.1 23.7 112.3 23.6 112.5 23.4C112.7 23.2 112.8 23 112.8 22.8V19C112.8 18.7 112.7 18.5 112.5 18.3C112.3 18.1 112.1 18 111.8 18H96.1C95.2 18 94.4 18.3 93.8 18.9C93.1 19.5 92.8 20.3 92.8 21.3V43.7C92.8 44 92.9 44.2 93.1 44.4C93.3 44.6 93.5 44.7 93.8 44.7H112C112.3 44.7 112.5 44.6 112.7 44.4C112.9 44.2 113 44 113 43.7V39.9C113 39.6 112.9 39.4 112.7 39.2C112.5 39 112.3 38.9 112 38.9H100.8C100.4 38.9 100.2 38.8 99.9 38.5C99.7 38.2 99.6 38 99.6 37.7V35.1C99.6 34.8 99.7 34.6 99.9 34.3C100.1 34 100.4 33.9 100.8 33.9L109.2 34Z" fill="white"/>
<path d="M195.9 43.4L191.1 34.7C191 34.6 191 34.5 191 34.3C191 34.1 191.1 34 191.3 33.8C192.7 33 193.7 32.1 194.4 30.9C195 29.7 195.4 28.3 195.4 26.7C195.4 25.1 195.1 23.8 194.5 22.7C193.9 21.6 193.1 20.7 192.2 20C191.2 19.3 190.1 18.8 188.8 18.5C187.5 18.2 186.2 18 184.7 18H176.6C175.7 18 174.9 18.3 174.3 19C173.6 19.6 173.3 20.4 173.3 21.4V43.8C173.3 44.1 173.4 44.3 173.6 44.5C173.8 44.7 174 44.8 174.3 44.8H179.5C179.8 44.8 180 44.7 180.2 44.6C180.4 44.4 180.5 44.2 180.5 43.9V37.6V36.8C180.5 36.5 180.6 36.3 180.8 36C181 35.7 181.3 35.6 181.7 35.6H183.5C183.9 35.6 184.2 35.8 184.5 36.2L188.4 43.9C188.7 44.6 189.2 44.9 190 44.9H195.4C195.6 44.9 195.8 44.8 196 44.7C196.2 44.5 196.2 44.3 196.2 44.1C196 43.7 196 43.6 195.9 43.4ZM184.7 23.4C185.7 23.4 186.5 23.7 187.1 24.2C187.7 24.7 188 25.5 188 26.6C188 27.6 187.7 28.4 187.1 28.9C186.5 29.4 185.7 29.7 184.7 29.7H181.4C181.1 29.7 180.8 29.6 180.6 29.4C180.4 29.2 180.3 28.9 180.3 28.6V26.6V26.5V24.7C180.3 24.4 180.4 24.2 180.6 23.9C180.8 23.6 181.1 23.5 181.5 23.5L184.7 23.4Z" fill="white"/>
<path d="M61.1 9.30012C59.4 6.40012 56.1 5.10012 52.8 5.50012C44.9 -0.0998812 32.8 0.000118906 31.8 0.000118906H31.6C30.7 0.000118906 18.5 -0.0998812 10.6 5.60012C7.29998 5.10012 3.99998 6.50012 2.39998 9.30012C0.799976 12.1001 1.19998 15.6001 3.09998 18.2001C1.09998 26.8001 3.09998 35.2001 8.89998 42.4001C17.8 53.3001 25 58.4001 31.6 58.4001H31.8C38.4 58.4001 45.7 53.3001 54.5 42.4001C60.3 35.2001 62.3 26.8001 60.3 18.2001C62.3 15.6001 62.7 12.1001 61.1 9.30012Z" fill="#FFAB00"/>
<path d="M58.7 10.7002C57.5 8.50016 54.7 7.70016 52.2 8.50016C45 2.50016 31.9 2.70016 31.9 2.70016H31.7C31.7 2.70016 18.6 2.40016 11.4 8.50016C8.8 7.70016 6.1 8.50016 4.9 10.7002C3.6 12.9002 4.3 15.7002 6.3 17.5002C4.4 24.2002 4.5 32.5002 11.2 40.7002C19.7 51.1002 26.3 55.7002 31.8 55.7002H32C37.4 55.7002 44.1 51.1002 52.6 40.7002C59.2 32.5002 59.4 24.2002 57.5 17.5002C59.3 15.7002 60 12.9002 58.7 10.7002Z" fill="white"/>
<path d="M31.5 50.2001C31.5 50.2001 30.7 50.3001 29.9 49.9001C29.1 49.5001 28 48.0001 28 46.2001C28 44.3001 30.4 44.4001 30.4 44.4001H33C33 44.4001 35.4 44.3001 35.4 46.2001C35.4 48.1001 34.3 49.5001 33.5 49.9001C32.7 50.3001 31.9 50.2001 31.9 50.2001H31.5Z" fill="#FFAB00"/>
<path d="M29.9 20.9C30 23.7 30 26.7 29.9 29.4C29.8 31.7 29.6 33.9 29.2 35.7C28.9 37.3 28.5 38.7 27.9 39.7C24.3 46.4 16.3 49.2 9.39999 46.4C8.79998 46.2 8.29999 45.9 7.69999 45.6C6.29999 44.9 5.09999 43.9 4.09999 42.8C-0.300014 38.3 -1.40001 31.2 1.69999 25.4C3.59999 21.9 10.2 17.3 16.4 13.5C22.3 10.1 29.7 14.1 29.9 20.9Z" fill="#00006E"/>
<path d="M15 23.9001C14.9 23.9001 14.7 23.9001 14.6 23.9001C9.49999 23.9001 5.29999 28.1001 5.29999 33.2001C5.29999 37.0001 7.59999 40.3001 11 41.8001C12.1 42.3001 13.3 42.5001 14.6 42.5001C19.7 42.5001 23.9 38.3001 23.9 33.2001C23.9 28.2001 20 24.1001 15 23.9001Z" fill="white"/>
<path d="M19.2 31.8002C18.8 31.8002 18.4 31.7002 18.1 31.6002C17.1 31.2002 16.4 30.2002 16.4 29.0002C16.4 28.3002 16.6 27.7002 17 27.2002C16.3 26.9002 15.6 26.8002 14.8 26.7002C14.7 26.7002 14.6 26.7002 14.5 26.7002C10.9 26.7002 8 29.6002 8 33.2002C8 35.9002 9.6 38.2002 12 39.2002C12.8 39.5002 13.6 39.7002 14.5 39.7002C18.1 39.7002 21 36.8002 21 33.2002C21 32.5002 20.9 31.9002 20.7 31.3002C20.4 31.6002 19.8 31.8002 19.2 31.8002Z" fill="#FFAB00"/>
<path d="M33.3 20.9C33.5 14.1 40.9 10.1 46.7 13.6C52.9 17.4 59.5 21.9 61.4 25.5C64.6 31.3 63.4 38.4 59 42.9C58 44 56.8 44.9 55.4 45.7C54.9 46 54.3 46.3 53.7 46.5C46.8 49.2 38.8 46.4 35.2 39.8C34.7 38.8 34.2 37.4 33.9 35.8C33.5 33.9 33.3 31.8 33.2 29.5C33.2 26.6 33.2 23.7 33.3 20.9Z" fill="#00006E"/>
<path d="M48.6 23.9001C48.5 23.9001 48.3 23.9001 48.2 23.9001C43.1 23.9001 38.9 28.1001 38.9 33.2001C38.9 37.0001 41.2 40.3001 44.6 41.8001C45.7 42.3001 46.9 42.5001 48.2 42.5001C53.3 42.5001 57.5 38.3001 57.5 33.2001C57.5 28.2001 53.6 24.1001 48.6 23.9001Z" fill="white"/>
<path d="M52.9 31.8002C52.5 31.8002 52.1 31.7002 51.8 31.6002C50.8 31.2002 50.1 30.2002 50.1 29.0002C50.1 28.3002 50.3 27.7002 50.7 27.2002C50 26.9002 49.3 26.8002 48.5 26.7002C48.4 26.7002 48.3 26.7002 48.2 26.7002C44.6 26.7002 41.7 29.6002 41.7 33.2002C41.7 35.9002 43.3 38.2002 45.7 39.2002C46.5 39.5002 47.3 39.7002 48.2 39.7002C51.8 39.7002 54.7 36.8002 54.7 33.2002C54.7 32.5002 54.6 31.9002 54.4 31.3002C54 31.6002 53.5 31.8002 52.9 31.8002Z" fill="#FFAB00"/>
</svg>
