<svg width="41" height="42" viewBox="0 0 41 42" fill="none" xmlns="http://www.w3.org/2000/svg">
<g clip-path="url(#clip0_34_2)">
<path d="M36 32.8002H4.2C2.7 32.8002 1.5 31.6002 1.5 30.1002V15.9002C1.5 14.4002 2.7 13.2002 4.2 13.2002H36C37.5 13.2002 38.7 14.4002 38.7 15.9002V30.1002C38.7 31.6002 37.5 32.8002 36 32.8002Z" stroke="white" stroke-width="3" stroke-miterlimit="10" stroke-linecap="round" stroke-linejoin="round"/>
<path d="M34.4001 13.2V12C34.4001 10.8 33.9 9.6 33 8.7L27.2001 2.9C26.3001 2 25.2 1.5 23.9 1.5H8.50005C7.00005 1.5 5.80005 2.7 5.80005 4.2V13.2" stroke="white" stroke-width="3" stroke-miterlimit="10" stroke-linecap="round" stroke-linejoin="round"/>
<path d="M5.80005 32.7998V37.8998C5.80005 39.3998 7.00005 40.5998 8.50005 40.5998H31.7001C33.2001 40.5998 34.4001 39.3998 34.4001 37.8998V32.7998" stroke="white" stroke-width="3" stroke-miterlimit="10" stroke-linecap="round" stroke-linejoin="round"/>
<path d="M7.30005 28.2998V18.2998H9.70005C11.2 18.2998 12.4 19.4998 12.4 20.9998C12.4 22.4998 11.2 23.6998 9.70005 23.6998H7.30005" stroke="white" stroke-width="3" stroke-miterlimit="10" stroke-linecap="round" stroke-linejoin="round"/>
<path d="M18.8001 28.2998H17.7001V18.2998H18.8001C21.6001 18.2998 23.8001 20.4998 23.8001 23.2998C23.8001 25.9998 21.5001 28.2998 18.8001 28.2998Z" stroke="white" stroke-width="3" stroke-miterlimit="10" stroke-linecap="round" stroke-linejoin="round"/>
<path d="M29.1001 28.2998V18.2998H33.1001" stroke="white" stroke-width="3" stroke-miterlimit="10" stroke-linecap="round" stroke-linejoin="round"/>
<path d="M29.1001 23.5996H33.1001" stroke="white" stroke-width="3" stroke-miterlimit="10" stroke-linecap="round" stroke-linejoin="round"/>
</g>
<defs>
<clipPath id="clip0_34_2">
<rect width="40.2" height="42" fill="white"/>
</clipPath>
</defs>
</svg>
